#!OML:ASF H:\Terrain\Patient Classification 1\PLAYGROUND\JustinFriday\JustinFriday.ASF
:FULLY-SPECIFIED
:DEGREES
1535
root 12.9578 22.4266 10.284 98.8504 6.80567 -180.483
lowerback 45.6503 0.145325 -9.5002
upperback 3.84311 0.820784 11.7708
thorax -18.0904 2.80435 18.5105
lowerneck 11.6008 1.06305 -24.651
upperneck 22.6544 3.8858 -0.0839245
head 5.24143 1.85598 4.13921
rclavicle 1.27222e-014 2.8625e-014
rhumerus 104.541 14.4931 -49.1218
rradius 22.5869
rwrist 28.2181
rhand -15.8101 -9.51616
rfingers 7.12502
rthumb 10.3834 -399.24
lclavicle 1.27222e-014 2.8625e-014
lhumerus 73.2991 23.8491 66.4485
lradius 24.1584
lwrist -50.3361
lhand -23.2925 -21.321
lfingers 7.12502
lthumb 3.16062 8.63528
rfemur -88.9972 -12.1179 35.7141
rtibia 126.695
rfoot -27.545 -0.575865
rtoes -5.86564
lfemur -91.8491 18.8628 -23.2072
ltibia 119.125
lfoot -27.8323 -11.0731
ltoes -25.9898
1536
root 12.9478 22.4847 10.2177 97.8207 6.86418 -180.665
lowerback 47.6609 0.404575 -9.37924
upperback 2.6268 1.182 12.1792
thorax -18.6099 2.91762 18.305
lowerneck 11.7781 0.991244 -24.6853
upperneck 22.9109 3.93737 -0.452114
head 5.32215 1.89803 4.03325
rclavicle 5.725e-014 -9.70069e-014
rhumerus 104.421 14.5853 -48.4562
rradius 22.7085
rwrist 27.9431
rhand -15.3444 -9.58183
rfingers 7.12502
rthumb 10.8326 -399.282
lclavicle 5.725e-014 -9.70069e-014
lhumerus 73.071 23.8314 67.2848
lradius 24.3026
lwrist -50.8095
lhand -22.9995 -21.5631
lfingers 7.12502
lthumb 3.44356 8.38883
rfemur -87.4213 -12.8205 35.4949
rtibia 127.33
rfoot -27.6784 -0.485408
rtoes -5.5444
lfemur -90.3392 19.4439 -23.3622
ltibia 119.654
lfoot -29.3139 -10.947
ltoes -24.4058
1537
root 12.9527 22.5187 10.0993 98.0753 7.2074 -180.433
lowerback 47.4015 0.245143 -9.0216
upperback 2.38385 1.21781 12.3792
thorax -18.9185 2.95854 18.3952
lowerneck 12.1734 1.03793 -24.6659
upperneck 22.9087 4.01022 -0.694955
head 5.27238 1.97019 3.94485
rclavicle 2.8625e-014 -8.42847e-014
rhumerus 104.285 14.6711 -48.0241
rradius 22.8986
rwrist 27.711
rhand -14.8986 -9.62842
rfingers 7.12502
rthumb 11.2625 -399.306
lclavicle 2.8625e-014 -8.42847e-014
lhumerus 72.8655 23.862 67.6445
lradius 24.3559
lwrist -50.9754
lhand -22.7252 -21.7688
lfingers 7.12502
lthumb 3.70848 8.17866
rfemur -87.7423 -12.8254 36.0416
rtibia 128.206
rfoot -27.2769 -1.2741
rtoes -6.0828
lfemur -91.5484 19.6631 -23.7545
ltibia 120.739
lfoot -29.6254 -12.0393
ltoes -21.0213
1538
root 12.951 22.5533 9.99758 98.3307 7.38595 -180.28
lowerback 46.0601 -0.0256092 -8.85593
upperback 3.33123 1.05183 12.2234
thorax -19.0493 3.01333 18.6962
lowerneck 12.3418 1.07827 -24.7852
upperneck 23.0164 4.09546 -0.76832
head 5.28603 2.02386 3.9406
rclavicle -1.145e-013 1.11319e-013
rhumerus 104.42 14.6012 -47.6174
rradius 23.0019
rwrist 27.4319
rhand -14.5048 -9.64998
rfingers 7.12502
rthumb 11.6423 -399.307
lclavicle -1.145e-013 1.11319e-013
lhumerus 72.9451 24.0203 67.8245
lradius 24.2525
lwrist -51.0302
lhand -22.5114 -21.9457
lfingers 7.12502
lthumb 3.91489 7.99809
rfemur -87.949 -12.9413 36.3091
rtibia 128.983
rfoot -27.1867 -1.67689
rtoes -7.2771
lfemur -92.6704 19.8739 -24.4455
ltibia 121.774
lfoot -29.8676 -12.7952
ltoes -16.6567
1539
root 12.9625 22.5839 9.943 97.8695 7.38557 -180.66
lowerback 46.0805 0.270505 -9.22707
upperback 3.54884 1.28156 12.3443
thorax -18.8801 3.13106 18.9236
lowerneck 12.2114 1.0904 -25.1132
upperneck 23.0565 4.10955 -0.626622
head 5.31924 2.00794 4.03956
rclavicle 4.13472e-014 4.77083e-014
rhumerus 104.854 14.2643 -47.0204
rradius 23.0043
rwrist 27.0555
rhand -14.169 -9.72973
rfingers 7.12502
rthumb 11.9662 -399.368
lclavicle 4.13472e-014 4.77083e-014
lhumerus 73.2439 24.2365 68.1056
lradius 24.2687
lwrist -50.9737
lhand -22.2436 -22.0624
lfingers 7.12502
lthumb 4.17358 7.87643
rfemur -87.024 -12.9247 36.2393
rtibia 129.493
rfoot -27.8649 -1.41362
rtoes -8.11719
lfemur -92.4311 20.8398 -25.0156
ltibia 122.458
lfoot -29.901 -13.3483
ltoes -13.0509
1540
root 12.9774 22.5878 9.84394 98.3955 7.22888 -180.434
lowerback 45.6367 0.129386 -9.27919
upperback 3.30665 1.0324 12.333
thorax -19.1065 3.05071 19.112
lowerneck 12.1351 1.14084 -25.2733
upperneck 23.3243 4.2492 -0.566562
head 5.40983 2.06546 4.09594
rclavicle 3.49861e-014 -9.38264e-014
rhumerus 105.039 14.3758 -46.9274
rradius 22.8724
rwrist 26.9309
rhand -13.8072 -9.70958
rfingers 7.12502
rthumb 12.315 -399.327
lclavicle 3.49861e-014 -9.38264e-014
lhumerus 72.6396 24.3308 67.2428
lradius 24.5089
lwrist -50.2835
lhand -21.9227 -22.0584
lfingers 7.12502
lthumb 4.48337 7.87411
rfemur -88.0724 -12.5951 36.3135
rtibia 130.368
rfoot -28.4687 -0.828206
rtoes -4.04634
lfemur -93.9499 20.6248 -25.8231
ltibia 123.222
lfoot -28.8785 -14.1046
ltoes -10.1201
